<svg width="104" height="32" viewBox="0 0 104 32" fill="none" xmlns="http://www.w3.org/2000/svg">
<path d="M13.1982 4C8.90686 5.28722 5.9844 9.2864 5.98438 14.1055C5.98438 19.9856 10.7508 24.7528 16.6309 24.7529C21.4271 24.7529 25.3893 21.5809 26.6875 17.2207C26.2392 23.6605 20.8741 28.7451 14.3203 28.7451C7.47284 28.7451 1.92188 23.1942 1.92188 16.3467C1.92209 9.87766 6.87676 4.56713 13.1982 4Z" fill="url(#paint0_linear_10755_231428)"/>
<path d="M17.5603 23.1579C14.8349 23.9539 10.6359 23.6719 8.68349 21.4424C6.22315 18.9746 6.53912 14.9677 7.87498 12.0098C7.08389 14.2073 7.62998 18.0859 9.83501 20.2909C12.04 22.4959 15.4079 23.492 17.5603 23.1579Z" fill="url(#paint1_linear_10755_231428)"/>
<path d="M10.1568 8.29445C12.7024 6.72253 14.5091 6.49926 16.0341 6.49693C17.6267 6.4945 18.9015 7.05606 20.2257 7.78905C20.4212 7.89727 20.932 7.98516 21.1321 7.68966C21.3321 7.39415 21.0182 6.96026 20.8367 6.80809C19.7573 5.90323 18.1066 5.36675 16.3264 5.36947C13.9237 5.37314 11.6241 6.52932 10.1568 8.29445Z" fill="url(#paint2_linear_10755_231428)"/>
<path d="M21.1308 21.1164C23.2018 18.9572 23.7991 17.2376 24.1214 15.747C24.4579 14.1904 24.1763 12.8261 23.7375 11.3776C23.6727 11.1637 23.6939 10.6459 24.0248 10.5123C24.3557 10.3787 24.7141 10.7766 24.8248 10.986C25.483 12.2312 25.6612 13.9578 25.2851 15.6977C24.7774 18.0462 23.1645 20.052 21.1308 21.1164Z" fill="url(#paint3_linear_10755_231428)"/>
<path d="M16.3681 8.06684L19.6174 10.6543L23.2557 8.58764L20.6396 11.8532L22.6804 15.4709L19.4311 12.8834L15.7929 14.9501L18.409 11.6845L16.3681 8.06684Z" fill="url(#paint4_linear_10755_231428)"/>
<path d="M97.715 24.8982V9.27159L96.3145 7.87109H101.523V23.4977L102.924 24.8982H97.715Z" fill="white"/>
<path d="M88.9428 20.1562H82.8739L80.9083 24.8982H79.5078L85.9943 9.24702L84.8395 7.87109H87.9599L95.0362 24.8982H90.9329L88.9428 20.1562ZM88.3776 18.7557L85.9206 12.8588L83.4636 18.7557H88.3776Z" fill="white"/>
<path d="M77.1225 24.8736H73.1176L68.2281 17.3306H67.7613V24.8736H63.7564V9.27159L62.6016 7.87109H71.9382C72.5934 7.87109 73.2077 8.00213 73.781 8.26422C74.3543 8.50992 74.8539 8.84571 75.2798 9.27159C75.7056 9.69748 76.0414 10.1971 76.2871 10.7704C76.5492 11.3437 76.6803 11.9579 76.6803 12.6131C76.6803 13.252 76.5656 13.8498 76.3363 14.4068C76.107 14.9637 75.7875 15.4551 75.378 15.881C74.9685 16.2905 74.4935 16.6263 73.953 16.8883C73.4124 17.1504 72.8309 17.2978 72.2085 17.3306L77.1225 24.8736ZM69.3092 15.9547C69.7679 15.9547 70.2019 15.8728 70.6114 15.709C71.0209 15.5288 71.3731 15.2913 71.668 14.9964C71.9792 14.6852 72.2167 14.3249 72.3805 13.9154C72.5607 13.5059 72.6508 13.0718 72.6508 12.6131C72.6508 12.1545 72.5607 11.7286 72.3805 11.3355C72.2167 10.926 71.9874 10.5738 71.6925 10.279C71.3977 9.96775 71.0537 9.72205 70.6606 9.54187C70.2674 9.36168 69.8498 9.2634 69.4075 9.24702V9.27159H67.7613V15.9547H69.3092Z" fill="white"/>
<path d="M55.8087 24.8982V9.27159L54.4082 7.87109H59.6171V23.4977L61.0176 24.8982H55.8087Z" fill="white"/>
<path d="M47.9651 9.68847L42.314 24.8728H40.9135V24.8483L35.2869 10.2044L35.2623 23.4969V24.8974H33.8618V9.27077L32.707 7.87027H38.3827L43.1985 18.6811L47.2034 7.87027H47.2526V7.8457H51.9455V24.8974H47.9651V9.68847Z" fill="white"/>
<defs>
<linearGradient id="paint0_linear_10755_231428" x1="25.6749" y1="26.3941" x2="4.6391" y2="4.84388" gradientUnits="userSpaceOnUse">
<stop stop-color="#03FFC6"/>
<stop offset="1" stop-color="#BBFF54"/>
</linearGradient>
<linearGradient id="paint1_linear_10755_231428" x1="17.1223" y1="22.465" x2="7.31187" y2="13.155" gradientUnits="userSpaceOnUse">
<stop stop-color="#03FFC6"/>
<stop offset="1" stop-color="#BBFF54"/>
</linearGradient>
<linearGradient id="paint2_linear_10755_231428" x1="14.148" y1="2.67846" x2="13.0235" y2="7.34529" gradientUnits="userSpaceOnUse">
<stop stop-color="#03FFC6"/>
<stop offset="1" stop-color="#BBFF54"/>
</linearGradient>
<linearGradient id="paint3_linear_10755_231428" x1="21.7839" y1="12.6641" x2="26.0446" y2="13.0617" gradientUnits="userSpaceOnUse">
<stop stop-color="#03FFC6"/>
<stop offset="1" stop-color="#BBFF54"/>
</linearGradient>
<linearGradient id="paint4_linear_10755_231428" x1="25.507" y1="11.8464" x2="13.6788" y2="10.7188" gradientUnits="userSpaceOnUse">
<stop stop-color="#03FFC6"/>
<stop offset="1" stop-color="#BBFF54"/>
</linearGradient>
</defs>
</svg>
